<mxfile host="app.diagrams.net" modified="2023-04-18T06:08:39.575Z" agent="Mozilla/5.0 (Windows NT 10.0; Win64; x64) AppleWebKit/537.36 (KHTML, like Gecko) Chrome/112.0.0.0 Safari/537.36" etag="cc5oekgr9eoprbyfnnv-" version="21.1.8" type="device">
  <diagram name="Page-1" id="C3SWew9P6svbUeRiehnw">
    <mxGraphModel dx="1050" dy="483" grid="1" gridSize="10" guides="1" tooltips="1" connect="1" arrows="1" fold="1" page="1" pageScale="1" pageWidth="850" pageHeight="1100" math="0" shadow="0">
      <root>
        <mxCell id="0" />
        <mxCell id="1" parent="0" />
        <mxCell id="rJrI6uT34yDtAtdMeDpF-1" value="" style="rounded=1;whiteSpace=wrap;html=1;" vertex="1" parent="1">
          <mxGeometry x="10" y="140" width="810" height="540" as="geometry" />
        </mxCell>
        <mxCell id="rJrI6uT34yDtAtdMeDpF-42" value="" style="ellipse;shape=cloud;whiteSpace=wrap;html=1;" vertex="1" parent="1">
          <mxGeometry x="270" y="130" width="320" height="150" as="geometry" />
        </mxCell>
        <mxCell id="rJrI6uT34yDtAtdMeDpF-38" value="" style="verticalLabelPosition=bottom;verticalAlign=top;html=1;shape=mxgraph.basic.three_corner_round_rect;dx=6;whiteSpace=wrap;" vertex="1" parent="1">
          <mxGeometry x="150" y="320" width="650" height="310" as="geometry" />
        </mxCell>
        <mxCell id="rJrI6uT34yDtAtdMeDpF-2" value="" style="points=[[0.35,0,0],[0.98,0.51,0],[1,0.71,0],[0.67,1,0],[0,0.795,0],[0,0.65,0]];verticalLabelPosition=bottom;sketch=0;html=1;verticalAlign=top;aspect=fixed;align=center;pointerEvents=1;shape=mxgraph.cisco19.user;fillColor=#005073;strokeColor=none;" vertex="1" parent="1">
          <mxGeometry x="30" y="435" width="80" height="80" as="geometry" />
        </mxCell>
        <mxCell id="rJrI6uT34yDtAtdMeDpF-3" value="&lt;b&gt;UI&lt;/b&gt;" style="shape=singleArrow;whiteSpace=wrap;html=1;" vertex="1" parent="1">
          <mxGeometry x="90" y="420.99" width="80" height="50" as="geometry" />
        </mxCell>
        <mxCell id="rJrI6uT34yDtAtdMeDpF-4" value="" style="rounded=0;whiteSpace=wrap;html=1;" vertex="1" parent="1">
          <mxGeometry x="180" y="345" width="150" height="265" as="geometry" />
        </mxCell>
        <mxCell id="rJrI6uT34yDtAtdMeDpF-5" value="" style="dashed=0;outlineConnect=0;html=1;align=center;labelPosition=center;verticalLabelPosition=bottom;verticalAlign=top;shape=mxgraph.weblogos.html5" vertex="1" parent="1">
          <mxGeometry x="197.32999999999998" y="361" width="52.400000000000006" height="74" as="geometry" />
        </mxCell>
        <mxCell id="rJrI6uT34yDtAtdMeDpF-6" value="" style="shape=image;html=1;verticalAlign=top;verticalLabelPosition=bottom;labelBackgroundColor=#ffffff;imageAspect=0;aspect=fixed;image=https://cdn1.iconfinder.com/data/icons/hawcons/32/699766-icon-12-file-css-128.png" vertex="1" parent="1">
          <mxGeometry x="183.52999999999997" y="437.5" width="80" height="80" as="geometry" />
        </mxCell>
        <mxCell id="rJrI6uT34yDtAtdMeDpF-7" value="" style="shape=image;html=1;verticalAlign=top;verticalLabelPosition=bottom;labelBackgroundColor=#ffffff;imageAspect=0;aspect=fixed;image=https://cdn0.iconfinder.com/data/icons/long-shadow-web-icons/512/javascript-128.png" vertex="1" parent="1">
          <mxGeometry x="193.03" y="526.98" width="61" height="61" as="geometry" />
        </mxCell>
        <mxCell id="rJrI6uT34yDtAtdMeDpF-8" value="&lt;b&gt;&lt;font style=&quot;font-size: 23px;&quot;&gt;Frontend&lt;/font&gt;&lt;/b&gt;" style="text;html=1;strokeColor=none;fillColor=none;align=center;verticalAlign=middle;whiteSpace=wrap;rounded=0;rotation=-90;" vertex="1" parent="1">
          <mxGeometry x="220" y="400.99" width="150" height="37.5" as="geometry" />
        </mxCell>
        <mxCell id="rJrI6uT34yDtAtdMeDpF-9" value="" style="whiteSpace=wrap;html=1;" vertex="1" parent="1">
          <mxGeometry x="440" y="340" width="330" height="270" as="geometry" />
        </mxCell>
        <mxCell id="rJrI6uT34yDtAtdMeDpF-10" value="&lt;b style=&quot;font-size: 18px;&quot;&gt;Backend&lt;/b&gt;" style="text;html=1;strokeColor=none;fillColor=none;align=center;verticalAlign=middle;whiteSpace=wrap;rounded=0;fontSize=18;" vertex="1" parent="1">
          <mxGeometry x="532.5" y="345" width="80" height="30" as="geometry" />
        </mxCell>
        <mxCell id="rJrI6uT34yDtAtdMeDpF-12" value="" style="shape=singleArrow;whiteSpace=wrap;html=1;" vertex="1" parent="1">
          <mxGeometry x="330" y="413.96" width="110" height="36.04" as="geometry" />
        </mxCell>
        <mxCell id="rJrI6uT34yDtAtdMeDpF-13" value="" style="shape=singleArrow;direction=west;whiteSpace=wrap;html=1;" vertex="1" parent="1">
          <mxGeometry x="325" y="486.98" width="115" height="40" as="geometry" />
        </mxCell>
        <mxCell id="rJrI6uT34yDtAtdMeDpF-14" value="&lt;b style=&quot;font-size: 16px;&quot;&gt;Rest API&lt;/b&gt;" style="text;html=1;strokeColor=none;fillColor=none;align=center;verticalAlign=middle;whiteSpace=wrap;rounded=0;" vertex="1" parent="1">
          <mxGeometry x="347.5" y="456.98" width="70" height="30" as="geometry" />
        </mxCell>
        <mxCell id="rJrI6uT34yDtAtdMeDpF-19" value="" style="rounded=0;whiteSpace=wrap;html=1;" vertex="1" parent="1">
          <mxGeometry x="460" y="390" width="150" height="190" as="geometry" />
        </mxCell>
        <mxCell id="rJrI6uT34yDtAtdMeDpF-20" value="" style="rounded=0;whiteSpace=wrap;html=1;" vertex="1" parent="1">
          <mxGeometry x="477.5" y="400.99" width="120" height="70" as="geometry" />
        </mxCell>
        <mxCell id="rJrI6uT34yDtAtdMeDpF-21" value="" style="shape=image;html=1;verticalAlign=top;verticalLabelPosition=bottom;labelBackgroundColor=#ffffff;imageAspect=0;aspect=fixed;image=https://cdn4.iconfinder.com/data/icons/scripting-and-programming-languages/512/660277-Python_logo-128.png" vertex="1" parent="1">
          <mxGeometry x="485" y="381.98" width="105" height="105" as="geometry" />
        </mxCell>
        <mxCell id="rJrI6uT34yDtAtdMeDpF-24" value="" style="rounded=0;whiteSpace=wrap;html=1;" vertex="1" parent="1">
          <mxGeometry x="477.5" y="490" width="120" height="80" as="geometry" />
        </mxCell>
        <mxCell id="rJrI6uT34yDtAtdMeDpF-25" value="" style="shape=image;html=1;verticalAlign=top;verticalLabelPosition=bottom;labelBackgroundColor=#ffffff;imageAspect=0;aspect=fixed;image=https://cdn4.iconfinder.com/data/icons/fruits-and-veggies-2/280/fruits-and-veggies-icons_chilli-pepper-128.png" vertex="1" parent="1">
          <mxGeometry x="493.49" y="470.99" width="83.02" height="83.02" as="geometry" />
        </mxCell>
        <mxCell id="rJrI6uT34yDtAtdMeDpF-26" value="&lt;b&gt;&lt;font style=&quot;font-size: 17px;&quot;&gt;Flask&lt;/font&gt;&lt;/b&gt;" style="text;html=1;strokeColor=none;fillColor=none;align=center;verticalAlign=middle;whiteSpace=wrap;rounded=0;" vertex="1" parent="1">
          <mxGeometry x="505" y="529.01" width="60" height="30" as="geometry" />
        </mxCell>
        <mxCell id="rJrI6uT34yDtAtdMeDpF-29" value="" style="rounded=0;whiteSpace=wrap;html=1;" vertex="1" parent="1">
          <mxGeometry x="650" y="480" width="100" height="100" as="geometry" />
        </mxCell>
        <mxCell id="rJrI6uT34yDtAtdMeDpF-37" value="" style="edgeStyle=orthogonalEdgeStyle;rounded=0;orthogonalLoop=1;jettySize=auto;html=1;entryX=0.995;entryY=0.422;entryDx=0;entryDy=0;entryPerimeter=0;" edge="1" parent="1" source="rJrI6uT34yDtAtdMeDpF-30" target="rJrI6uT34yDtAtdMeDpF-19">
          <mxGeometry relative="1" as="geometry" />
        </mxCell>
        <mxCell id="rJrI6uT34yDtAtdMeDpF-30" value="" style="image;sketch=0;aspect=fixed;html=1;points=[];align=center;fontSize=12;image=img/lib/mscae/SQL_Servers.svg;" vertex="1" parent="1">
          <mxGeometry x="670" y="490" width="52.99" height="52.99" as="geometry" />
        </mxCell>
        <mxCell id="rJrI6uT34yDtAtdMeDpF-31" value="&lt;b&gt;&lt;font style=&quot;font-size: 14px;&quot;&gt;SQL Server&lt;/font&gt;&lt;/b&gt;" style="text;html=1;strokeColor=none;fillColor=none;align=center;verticalAlign=middle;whiteSpace=wrap;rounded=0;" vertex="1" parent="1">
          <mxGeometry x="660" y="547" width="80" height="30" as="geometry" />
        </mxCell>
        <mxCell id="rJrI6uT34yDtAtdMeDpF-33" value="" style="edgeStyle=segmentEdgeStyle;endArrow=classic;html=1;curved=0;rounded=0;endSize=8;startSize=8;entryX=0.5;entryY=0;entryDx=0;entryDy=0;" edge="1" parent="1" target="rJrI6uT34yDtAtdMeDpF-29">
          <mxGeometry width="50" height="50" relative="1" as="geometry">
            <mxPoint x="612.5" y="431.98" as="sourcePoint" />
            <mxPoint x="662.5" y="381.98" as="targetPoint" />
            <Array as="points">
              <mxPoint x="700" y="432" />
            </Array>
          </mxGeometry>
        </mxCell>
        <mxCell id="rJrI6uT34yDtAtdMeDpF-39" value="" style="image;points=[];aspect=fixed;html=1;align=center;shadow=0;dashed=0;image=img/lib/allied_telesis/storage/Datacenter_Server_Rack.svg;" vertex="1" parent="1">
          <mxGeometry x="347.5" y="161.2" width="43.81" height="88.8" as="geometry" />
        </mxCell>
        <mxCell id="rJrI6uT34yDtAtdMeDpF-40" value="&lt;b&gt;&lt;font style=&quot;font-size: 16px;&quot;&gt;PythonAnyWhere&lt;/font&gt;&lt;/b&gt;" style="text;html=1;strokeColor=none;fillColor=none;align=center;verticalAlign=middle;whiteSpace=wrap;rounded=0;" vertex="1" parent="1">
          <mxGeometry x="380" y="170" width="170" height="30" as="geometry" />
        </mxCell>
        <mxCell id="rJrI6uT34yDtAtdMeDpF-41" value="" style="shape=image;html=1;verticalAlign=top;verticalLabelPosition=bottom;labelBackgroundColor=#ffffff;imageAspect=0;aspect=fixed;image=https://cdn4.iconfinder.com/data/icons/ibrandify-basic-essentials-icon-set/512/pen_stroke_sketch_doodle_lineart_21-128.png" vertex="1" parent="1">
          <mxGeometry x="425" y="190" width="44.53" height="44.53" as="geometry" />
        </mxCell>
        <mxCell id="rJrI6uT34yDtAtdMeDpF-44" value="" style="html=1;shadow=0;dashed=0;align=center;verticalAlign=middle;shape=mxgraph.arrows2.twoWayArrow;dy=0.65;dx=22;flipV=1;flipH=0;direction=south;" vertex="1" parent="1">
          <mxGeometry x="425" y="230" width="60" height="90" as="geometry" />
        </mxCell>
      </root>
    </mxGraphModel>
  </diagram>
</mxfile>
